<svg width="147" height="58" viewBox="0 0 147 58" fill="none" xmlns="http://www.w3.org/2000/svg">
<rect width="147" height="58" rx="8" fill="#24186C"/>
<path d="M54.4375 17.6875H51.8125V40.5H54.4375V17.6875ZM74.125 38.25H62.6875V17.6875H60.0625V40.5H74.125V38.25ZM79.5625 31.5625C79.5625 37.625 82.6875 40.75 88.625 40.75C94.5625 40.75 97.6875 37.5625 97.6875 31.5625V17.6875H95.0625V31.8125C95.0625 36.25 92.875 38.5 88.625 38.5C84.375 38.5 82.1875 36.25 82.1875 31.8125V17.6875H79.5625V31.5625ZM105.312 17.6875H103.125V40.5H105.562L105.5 23.6875L113 40.5H114.812L122.25 23.5625V40.5H124.688V17.6875H122.5L113.938 37.375L105.312 17.6875Z" fill="white"/>
<path d="M54.4375 17.6875H55.4375V16.6875H54.4375V17.6875ZM51.8125 17.6875V16.6875H50.8125V17.6875H51.8125ZM51.8125 40.5H50.8125V41.5H51.8125V40.5ZM54.4375 40.5V41.5H55.4375V40.5H54.4375ZM54.4375 16.6875H51.8125V18.6875H54.4375V16.6875ZM50.8125 17.6875V40.5H52.8125V17.6875H50.8125ZM51.8125 41.5H54.4375V39.5H51.8125V41.5ZM55.4375 40.5V17.6875H53.4375V40.5H55.4375ZM74.125 38.25H75.125V37.25H74.125V38.25ZM62.6875 38.25H61.6875V39.25H62.6875V38.25ZM62.6875 17.6875H63.6875V16.6875H62.6875V17.6875ZM60.0625 17.6875V16.6875H59.0625V17.6875H60.0625ZM60.0625 40.5H59.0625V41.5H60.0625V40.5ZM74.125 40.5V41.5H75.125V40.5H74.125ZM74.125 37.25H62.6875V39.25H74.125V37.25ZM63.6875 38.25V17.6875H61.6875V38.25H63.6875ZM62.6875 16.6875H60.0625V18.6875H62.6875V16.6875ZM59.0625 17.6875V40.5H61.0625V17.6875H59.0625ZM60.0625 41.5H74.125V39.5H60.0625V41.5ZM75.125 40.5V38.25H73.125V40.5H75.125ZM97.6875 17.6875H98.6875V16.6875H97.6875V17.6875ZM95.0625 17.6875V16.6875H94.0625V17.6875H95.0625ZM82.1875 17.6875H83.1875V16.6875H82.1875V17.6875ZM79.5625 17.6875V16.6875H78.5625V17.6875H79.5625ZM78.5625 31.5625C78.5625 34.7556 79.3868 37.3453 81.1565 39.1332C82.9279 40.9228 85.4891 41.75 88.625 41.75V39.75C85.8234 39.75 83.8533 39.0147 82.5779 37.7262C81.3007 36.4359 80.5625 34.4319 80.5625 31.5625H78.5625ZM88.625 41.75C91.7661 41.75 94.3261 40.9044 96.0953 39.1079C97.862 37.3141 98.6875 34.7269 98.6875 31.5625H96.6875C96.6875 34.3981 95.9505 36.4047 94.6703 37.7046C93.3927 39.0019 91.4214 39.75 88.625 39.75V41.75ZM98.6875 31.5625V17.6875H96.6875V31.5625H98.6875ZM97.6875 16.6875H95.0625V18.6875H97.6875V16.6875ZM94.0625 17.6875V31.8125H96.0625V17.6875H94.0625ZM94.0625 31.8125C94.0625 33.8805 93.5528 35.2607 92.7179 36.1259C91.8892 36.9847 90.581 37.5 88.625 37.5V39.5C90.919 39.5 92.8296 38.8903 94.1571 37.5147C95.4784 36.1455 96.0625 34.182 96.0625 31.8125H94.0625ZM88.625 37.5C86.669 37.5 85.3608 36.9847 84.5321 36.1259C83.6972 35.2607 83.1875 33.8805 83.1875 31.8125H81.1875C81.1875 34.182 81.7716 36.1455 83.0929 37.5147C84.4204 38.8903 86.331 39.5 88.625 39.5V37.5ZM83.1875 31.8125V17.6875H81.1875V31.8125H83.1875ZM82.1875 16.6875H79.5625V18.6875H82.1875V16.6875ZM78.5625 17.6875V31.5625H80.5625V17.6875H78.5625ZM105.312 17.6875L106.228 17.2862L105.966 16.6875H105.312V17.6875ZM103.125 17.6875V16.6875H102.125V17.6875H103.125ZM103.125 40.5H102.125V41.5H103.125V40.5ZM105.562 40.5V41.5H106.566L106.562 40.4963L105.562 40.5ZM105.5 23.6875L106.413 23.2801L104.5 23.6912L105.5 23.6875ZM113 40.5L112.087 40.9074L112.351 41.5H113V40.5ZM114.812 40.5V41.5H115.466L115.728 40.9021L114.812 40.5ZM122.25 23.5625H123.25L121.334 23.1604L122.25 23.5625ZM122.25 40.5H121.25V41.5H122.25V40.5ZM124.688 40.5V41.5H125.688V40.5H124.688ZM124.688 17.6875H125.688V16.6875H124.688V17.6875ZM122.5 17.6875V16.6875H121.844L121.583 17.2887L122.5 17.6875ZM113.938 37.375L113.022 37.7763L113.941 39.8747L114.855 37.7738L113.938 37.375ZM105.312 16.6875H103.125V18.6875H105.312V16.6875ZM102.125 17.6875V40.5H104.125V17.6875H102.125ZM103.125 41.5H105.562V39.5H103.125V41.5ZM106.562 40.4963L106.5 23.6838L104.5 23.6912L104.563 40.5037L106.562 40.4963ZM104.587 24.0949L112.087 40.9074L113.913 40.0926L106.413 23.2801L104.587 24.0949ZM113 41.5H114.812V39.5H113V41.5ZM115.728 40.9021L123.166 23.9646L121.334 23.1604L113.897 40.0979L115.728 40.9021ZM121.25 23.5625V40.5H123.25V23.5625H121.25ZM122.25 41.5H124.688V39.5H122.25V41.5ZM125.688 40.5V17.6875H123.688V40.5H125.688ZM124.688 16.6875H122.5V18.6875H124.688V16.6875ZM121.583 17.2887L113.02 36.9762L114.855 37.7738L123.417 18.0863L121.583 17.2887ZM114.853 36.9737L106.228 17.2862L104.397 18.0888L113.022 37.7763L114.853 36.9737Z" fill="#F5F6FF"/>
<path d="M19.0469 19.0525L31.0347 42.5424L32.8651 21.301L19.0469 19.0525Z" fill="#3FDDEC"/>
<path d="M32.8538 21.301L31.0234 42.5424L42.9887 17.5498L32.8538 21.301Z" fill="url(#paint0_linear_897:5687)"/>
<path d="M42.8627 17.6209L29.479 15L19 19.0671L32.8521 21.2929L42.8627 17.6209Z" fill="#38B8CD"/>
<defs>
<linearGradient id="paint0_linear_897:5687" x1="37.0061" y1="17.5498" x2="37.0061" y2="42.5424" gradientUnits="userSpaceOnUse">
<stop stop-color="#48A1C8"/>
<stop offset="1" stop-color="#3FDDEC"/>
</linearGradient>
</defs>
</svg>
