<svg width="109" height="33" viewBox="0 0 109 33" fill="none" xmlns="http://www.w3.org/2000/svg">
<path d="M35.4375 2.93457H32.8125V25.7471H35.4375V2.93457ZM55.125 23.4971H43.6875V2.93457H41.0625V25.7471H55.125V23.4971ZM60.5625 16.8096C60.5625 22.8721 63.6875 25.9971 69.625 25.9971C75.5625 25.9971 78.6875 22.8096 78.6875 16.8096V2.93457H76.0625V17.0596C76.0625 21.4971 73.875 23.7471 69.625 23.7471C65.375 23.7471 63.1875 21.4971 63.1875 17.0596V2.93457H60.5625V16.8096ZM86.3125 2.93457H84.125V25.7471H86.5625L86.5 8.93457L94 25.7471H95.8125L103.25 8.80957V25.7471H105.688V2.93457H103.5L94.9375 22.6221L86.3125 2.93457Z" fill="#24186C"/>
<path d="M35.4375 2.93457H36.4375V1.93457H35.4375V2.93457ZM32.8125 2.93457V1.93457H31.8125V2.93457H32.8125ZM32.8125 25.7471H31.8125V26.7471H32.8125V25.7471ZM35.4375 25.7471V26.7471H36.4375V25.7471H35.4375ZM35.4375 1.93457H32.8125V3.93457H35.4375V1.93457ZM31.8125 2.93457V25.7471H33.8125V2.93457H31.8125ZM32.8125 26.7471H35.4375V24.7471H32.8125V26.7471ZM36.4375 25.7471V2.93457H34.4375V25.7471H36.4375ZM55.125 23.4971H56.125V22.4971H55.125V23.4971ZM43.6875 23.4971H42.6875V24.4971H43.6875V23.4971ZM43.6875 2.93457H44.6875V1.93457H43.6875V2.93457ZM41.0625 2.93457V1.93457H40.0625V2.93457H41.0625ZM41.0625 25.7471H40.0625V26.7471H41.0625V25.7471ZM55.125 25.7471V26.7471H56.125V25.7471H55.125ZM55.125 22.4971H43.6875V24.4971H55.125V22.4971ZM44.6875 23.4971V2.93457H42.6875V23.4971H44.6875ZM43.6875 1.93457H41.0625V3.93457H43.6875V1.93457ZM40.0625 2.93457V25.7471H42.0625V2.93457H40.0625ZM41.0625 26.7471H55.125V24.7471H41.0625V26.7471ZM56.125 25.7471V23.4971H54.125V25.7471H56.125ZM78.6875 2.93457H79.6875V1.93457H78.6875V2.93457ZM76.0625 2.93457V1.93457H75.0625V2.93457H76.0625ZM63.1875 2.93457H64.1875V1.93457H63.1875V2.93457ZM60.5625 2.93457V1.93457H59.5625V2.93457H60.5625ZM59.5625 16.8096C59.5625 20.0027 60.3868 22.5924 62.1565 24.3802C63.9279 26.1698 66.4891 26.9971 69.625 26.9971V24.9971C66.8234 24.9971 64.8533 24.2618 63.5779 22.9733C62.3007 21.683 61.5625 19.679 61.5625 16.8096H59.5625ZM69.625 26.9971C72.7661 26.9971 75.3261 26.1514 77.0953 24.355C78.862 22.5611 79.6875 19.974 79.6875 16.8096H77.6875C77.6875 19.6452 76.9505 21.6518 75.6703 22.9516C74.3927 24.2489 72.4214 24.9971 69.625 24.9971V26.9971ZM79.6875 16.8096V2.93457H77.6875V16.8096H79.6875ZM78.6875 1.93457H76.0625V3.93457H78.6875V1.93457ZM75.0625 2.93457V17.0596H77.0625V2.93457H75.0625ZM75.0625 17.0596C75.0625 19.1276 74.5528 20.5078 73.7179 21.373C72.8892 22.2318 71.581 22.7471 69.625 22.7471V24.7471C71.919 24.7471 73.8296 24.1374 75.1571 22.7618C76.4784 21.3926 77.0625 19.429 77.0625 17.0596H75.0625ZM69.625 22.7471C67.669 22.7471 66.3608 22.2318 65.5321 21.373C64.6972 20.5078 64.1875 19.1276 64.1875 17.0596H62.1875C62.1875 19.429 62.7716 21.3926 64.0929 22.7618C65.4204 24.1374 67.331 24.7471 69.625 24.7471V22.7471ZM64.1875 17.0596V2.93457H62.1875V17.0596H64.1875ZM63.1875 1.93457H60.5625V3.93457H63.1875V1.93457ZM59.5625 2.93457V16.8096H61.5625V2.93457H59.5625ZM86.3125 2.93457L87.2285 2.53329L86.9662 1.93457H86.3125V2.93457ZM84.125 2.93457V1.93457H83.125V2.93457H84.125ZM84.125 25.7471H83.125V26.7471H84.125V25.7471ZM86.5625 25.7471V26.7471H87.5662L87.5625 25.7434L86.5625 25.7471ZM86.5 8.93457L87.4133 8.52717L85.5 8.93829L86.5 8.93457ZM94 25.7471L93.0867 26.1545L93.3511 26.7471H94V25.7471ZM95.8125 25.7471V26.7471H96.4655L96.7281 26.1491L95.8125 25.7471ZM103.25 8.80957H104.25L102.334 8.40751L103.25 8.80957ZM103.25 25.7471H102.25V26.7471H103.25V25.7471ZM105.688 25.7471V26.7471H106.688V25.7471H105.688ZM105.688 2.93457H106.688V1.93457H105.688V2.93457ZM103.5 2.93457V1.93457H102.844L102.583 2.53574L103.5 2.93457ZM94.9375 22.6221L94.0215 23.0233L94.9408 25.1217L95.8545 23.0209L94.9375 22.6221ZM86.3125 1.93457H84.125V3.93457H86.3125V1.93457ZM83.125 2.93457V25.7471H85.125V2.93457H83.125ZM84.125 26.7471H86.5625V24.7471H84.125V26.7471ZM87.5625 25.7434L87.5 8.93085L85.5 8.93829L85.5625 25.7508L87.5625 25.7434ZM85.5867 9.34197L93.0867 26.1545L94.9133 25.3397L87.4133 8.52717L85.5867 9.34197ZM94 26.7471H95.8125V24.7471H94V26.7471ZM96.7281 26.1491L104.166 9.21163L102.334 8.40751L94.8969 25.345L96.7281 26.1491ZM102.25 8.80957V25.7471H104.25V8.80957H102.25ZM103.25 26.7471H105.688V24.7471H103.25V26.7471ZM106.688 25.7471V2.93457H104.688V25.7471H106.688ZM105.688 1.93457H103.5V3.93457H105.688V1.93457ZM102.583 2.53574L94.0205 22.2232L95.8545 23.0209L104.417 3.3334L102.583 2.53574ZM95.8535 22.2208L87.2285 2.53329L85.3965 3.33585L94.0215 23.0233L95.8535 22.2208Z" fill="#24186C"/>
<path d="M0.046875 4.05252L12.0347 27.5424L13.8651 6.30095L0.046875 4.05252Z" fill="#3FDDEC"/>
<path d="M13.8538 6.30095L12.0234 27.5424L23.9887 2.5498L13.8538 6.30095Z" fill="url(#paint0_linear_897:5578)"/>
<path d="M23.8627 2.62088L10.479 0L0 4.0671L13.8521 6.29293L23.8627 2.62088Z" fill="#38B8CD"/>
<defs>
<linearGradient id="paint0_linear_897:5578" x1="18.0061" y1="2.5498" x2="18.0061" y2="27.5424" gradientUnits="userSpaceOnUse">
<stop stop-color="#48A1C8"/>
<stop offset="1" stop-color="#3FDDEC"/>
</linearGradient>
</defs>
</svg>
