<svg width="109" height="33" viewBox="0 0 109 33" fill="none" xmlns="http://www.w3.org/2000/svg">
<path d="M35.4375 3.6875H32.8125V26.5H35.4375V3.6875ZM55.125 24.25H43.6875V3.6875H41.0625V26.5H55.125V24.25ZM60.5625 17.5625C60.5625 23.625 63.6875 26.75 69.625 26.75C75.5625 26.75 78.6875 23.5625 78.6875 17.5625V3.6875H76.0625V17.8125C76.0625 22.25 73.875 24.5 69.625 24.5C65.375 24.5 63.1875 22.25 63.1875 17.8125V3.6875H60.5625V17.5625ZM86.3125 3.6875H84.125V26.5H86.5625L86.5 9.6875L94 26.5H95.8125L103.25 9.5625V26.5H105.688V3.6875H103.5L94.9375 23.375L86.3125 3.6875Z" fill="white"/>
<path d="M35.4375 3.6875H36.4375V2.6875H35.4375V3.6875ZM32.8125 3.6875V2.6875H31.8125V3.6875H32.8125ZM32.8125 26.5H31.8125V27.5H32.8125V26.5ZM35.4375 26.5V27.5H36.4375V26.5H35.4375ZM35.4375 2.6875H32.8125V4.6875H35.4375V2.6875ZM31.8125 3.6875V26.5H33.8125V3.6875H31.8125ZM32.8125 27.5H35.4375V25.5H32.8125V27.5ZM36.4375 26.5V3.6875H34.4375V26.5H36.4375ZM55.125 24.25H56.125V23.25H55.125V24.25ZM43.6875 24.25H42.6875V25.25H43.6875V24.25ZM43.6875 3.6875H44.6875V2.6875H43.6875V3.6875ZM41.0625 3.6875V2.6875H40.0625V3.6875H41.0625ZM41.0625 26.5H40.0625V27.5H41.0625V26.5ZM55.125 26.5V27.5H56.125V26.5H55.125ZM55.125 23.25H43.6875V25.25H55.125V23.25ZM44.6875 24.25V3.6875H42.6875V24.25H44.6875ZM43.6875 2.6875H41.0625V4.6875H43.6875V2.6875ZM40.0625 3.6875V26.5H42.0625V3.6875H40.0625ZM41.0625 27.5H55.125V25.5H41.0625V27.5ZM56.125 26.5V24.25H54.125V26.5H56.125ZM78.6875 3.6875H79.6875V2.6875H78.6875V3.6875ZM76.0625 3.6875V2.6875H75.0625V3.6875H76.0625ZM63.1875 3.6875H64.1875V2.6875H63.1875V3.6875ZM60.5625 3.6875V2.6875H59.5625V3.6875H60.5625ZM59.5625 17.5625C59.5625 20.7556 60.3868 23.3453 62.1565 25.1332C63.9279 26.9228 66.4891 27.75 69.625 27.75V25.75C66.8234 25.75 64.8533 25.0147 63.5779 23.7262C62.3007 22.4359 61.5625 20.4319 61.5625 17.5625H59.5625ZM69.625 27.75C72.7661 27.75 75.3261 26.9044 77.0953 25.1079C78.862 23.3141 79.6875 20.7269 79.6875 17.5625H77.6875C77.6875 20.3981 76.9505 22.4047 75.6703 23.7046C74.3927 25.0019 72.4214 25.75 69.625 25.75V27.75ZM79.6875 17.5625V3.6875H77.6875V17.5625H79.6875ZM78.6875 2.6875H76.0625V4.6875H78.6875V2.6875ZM75.0625 3.6875V17.8125H77.0625V3.6875H75.0625ZM75.0625 17.8125C75.0625 19.8805 74.5528 21.2607 73.7179 22.1259C72.8892 22.9847 71.581 23.5 69.625 23.5V25.5C71.919 25.5 73.8296 24.8903 75.1571 23.5147C76.4784 22.1455 77.0625 20.182 77.0625 17.8125H75.0625ZM69.625 23.5C67.669 23.5 66.3608 22.9847 65.5321 22.1259C64.6972 21.2607 64.1875 19.8805 64.1875 17.8125H62.1875C62.1875 20.182 62.7716 22.1455 64.0929 23.5147C65.4204 24.8903 67.331 25.5 69.625 25.5V23.5ZM64.1875 17.8125V3.6875H62.1875V17.8125H64.1875ZM63.1875 2.6875H60.5625V4.6875H63.1875V2.6875ZM59.5625 3.6875V17.5625H61.5625V3.6875H59.5625ZM86.3125 3.6875L87.2285 3.28622L86.9662 2.6875H86.3125V3.6875ZM84.125 3.6875V2.6875H83.125V3.6875H84.125ZM84.125 26.5H83.125V27.5H84.125V26.5ZM86.5625 26.5V27.5H87.5662L87.5625 26.4963L86.5625 26.5ZM86.5 9.6875L87.4132 9.2801L85.5 9.69122L86.5 9.6875ZM94 26.5L93.0868 26.9074L93.3511 27.5H94V26.5ZM95.8125 26.5V27.5H96.4655L96.7281 26.9021L95.8125 26.5ZM103.25 9.5625H104.25L102.334 9.16044L103.25 9.5625ZM103.25 26.5H102.25V27.5H103.25V26.5ZM105.688 26.5V27.5H106.688V26.5H105.688ZM105.688 3.6875H106.688V2.6875H105.688V3.6875ZM103.5 3.6875V2.6875H102.844L102.583 3.28867L103.5 3.6875ZM94.9375 23.375L94.0215 23.7763L94.9408 25.8747L95.8545 23.7738L94.9375 23.375ZM86.3125 2.6875H84.125V4.6875H86.3125V2.6875ZM83.125 3.6875V26.5H85.125V3.6875H83.125ZM84.125 27.5H86.5625V25.5H84.125V27.5ZM87.5625 26.4963L87.5 9.68378L85.5 9.69122L85.5625 26.5037L87.5625 26.4963ZM85.5868 10.0949L93.0868 26.9074L94.9133 26.0926L87.4132 9.2801L85.5868 10.0949ZM94 27.5H95.8125V25.5H94V27.5ZM96.7281 26.9021L104.166 9.96456L102.334 9.16044L94.8969 26.0979L96.7281 26.9021ZM102.25 9.5625V26.5H104.25V9.5625H102.25ZM103.25 27.5H105.688V25.5H103.25V27.5ZM106.688 26.5V3.6875H104.688V26.5H106.688ZM105.688 2.6875H103.5V4.6875H105.688V2.6875ZM102.583 3.28867L94.0205 22.9762L95.8545 23.7738L104.417 4.08633L102.583 3.28867ZM95.8535 22.9737L87.2285 3.28622L85.3965 4.08878L94.0215 23.7763L95.8535 22.9737Z" fill="#F5F6FF"/>
<path d="M0.046875 4.80545L12.0347 28.2953L13.8651 7.05388L0.046875 4.80545Z" fill="#3FDDEC"/>
<path d="M13.8538 7.05388L12.0234 28.2953L23.9887 3.30273L13.8538 7.05388Z" fill="url(#paint0_linear)"/>
<path d="M23.8627 3.37381L10.479 0.75293L0 4.82003L13.8521 7.04586L23.8627 3.37381Z" fill="#38B8CD"/>
<defs>
<linearGradient id="paint0_linear" x1="18.0061" y1="3.30273" x2="18.0061" y2="28.2953" gradientUnits="userSpaceOnUse">
<stop stop-color="#48A1C8"/>
<stop offset="1" stop-color="#3FDDEC"/>
</linearGradient>
</defs>
</svg>
